<?xml version="1.0" standalone="no"?>
<!DOCTYPE svg PUBLIC "-//W3C//DTD SVG 20010904//EN"
 "http://www.w3.org/TR/2001/REC-SVG-20010904/DTD/svg10.dtd">
<svg version="1.0" xmlns="http://www.w3.org/2000/svg"
 width="370.000000pt" height="370.000000pt" viewBox="0 0 370.000000 370.000000"
 preserveAspectRatio="xMidYMid meet">
<metadata>
Created by potrace 1.14, written by Peter Selinger 2001-2017
</metadata>
<g transform="translate(0.000000,370.000000) scale(0.100000,-0.100000)"
fill="#000000" stroke="none">
<path d="M468 2622 c-33 -115 -130 -452 -313 -1087 -37 -126 -69 -237 -71
-245 -2 -8 -21 -76 -43 -150 -22 -74 -41 -150 -41 -168 l0 -33 52 3 51 3 75
260 c41 143 82 289 93 325 78 279 240 839 247 853 5 13 32 -67 90 -270 88
-304 86 -298 101 -353 5 -19 35 -123 66 -230 31 -107 58 -202 60 -210 2 -8 27
-97 56 -198 l52 -182 58 0 c33 0 59 2 59 4 0 2 -45 158 -100 347 -56 189 -103
353 -106 364 -2 11 -27 97 -54 190 -28 94 -52 177 -54 186 -3 9 -9 32 -14 50
-6 19 -49 169 -97 334 -47 165 -88 308 -91 318 -3 9 -13 17 -22 17 -13 0 -25
-29 -54 -128z"/>
<path d="M1339 2738 c-7 -69 -3 -1286 4 -1295 12 -17 83 -17 94 0 4 6 8 303 8
660 l1 647 -53 0 c-35 0 -53 -4 -54 -12z"/>
<path d="M2239 2738 c-5 -53 -3 -1052 2 -1060 7 -11 82 -14 98 -4 5 3 9 190 9
423 0 230 1 448 1 486 l1 67 249 0 c275 0 261 -4 261 66 l0 34 -310 0 c-241 0
-310 -3 -311 -12z"/>
<path d="M3129 2745 c-6 -23 -3 -72 4 -82 7 -10 77 -13 288 -13 l279 0 0 50 0
50 -285 0 c-157 0 -286 -2 -286 -5z"/>
<path d="M3133 2418 c-6 -8 -9 -305 -9 -743 l1 -730 55 -3 55 -3 0 686 c0 755
-6 693 62 693 45 1 53 8 53 47 0 64 -2 65 -110 65 -66 0 -101 -4 -107 -12z"/>
<path d="M2244 1578 c-8 -13 -14 -602 -6 -625 3 -10 78 -13 329 -13 l324 0 -3
48 -3 47 -267 3 -268 2 -1 63 c-1 67 0 345 0 363 1 7 19 11 47 10 55 -2 66 10
62 66 l-3 43 -102 3 c-74 2 -104 -1 -109 -10z"/>
<path d="M376 1388 c-9 -5 -15 -17 -12 -26 2 -9 20 -69 40 -132 19 -63 46
-154 61 -202 l26 -88 60 0 c32 0 59 1 59 3 0 1 -11 38 -25 82 -14 44 -44 141
-66 215 -23 74 -45 139 -50 144 -12 13 -73 15 -93 4z"/>
<path d="M1338 1268 c-2 -7 -4 -83 -4 -168 l1 -155 334 0 335 0 0 31 c0 67 15
63 -286 66 l-272 3 -1 115 0 115 -51 3 c-36 2 -53 -1 -56 -10z"/>
</g>
</svg>
